<svg width="20" height="37" viewBox="0 0 20 37" fill="none" xmlns="http://www.w3.org/2000/svg">
<path d="M18.7318 0.00749091L14.0631 0C8.81794 0 5.42828 3.47766 5.42828 8.86025V12.9454H0.734113C0.328475 12.9454 0 13.2743 0 13.6799V19.5988C0 20.0046 0.328851 20.333 0.734113 20.333H5.42828V35.2684C5.42828 35.674 5.75676 36.0024 6.1624 36.0024H12.287C12.6926 36.0024 13.0211 35.6736 13.0211 35.2684V20.333H18.5097C18.9153 20.333 19.2438 20.0046 19.2438 19.5988L19.246 13.6799C19.246 13.4851 19.1685 13.2986 19.031 13.1608C18.8936 13.0229 18.7063 12.9454 18.5115 12.9454H13.0211V9.48237C13.0211 7.8179 13.4177 6.97291 15.586 6.97291L18.731 6.97179C19.1363 6.97179 19.4648 6.64293 19.4648 6.23767V0.741599C19.4648 0.336717 19.1367 0.00824 18.7318 0.00749091Z" fill="#ADABAB"/>
</svg>
