<svg width="37" height="30" viewBox="0 0 37 30" fill="none" xmlns="http://www.w3.org/2000/svg">
<path d="M36.9999 3.83704C35.5836 4.44626 34.1668 4.82672 32.7511 4.97953C34.3501 4.02011 35.4319 2.66468 35.9954 0.913357C34.5326 1.78126 32.9718 2.37503 31.3121 2.695C29.8497 1.14163 28.053 0.364624 25.9207 0.364624C23.8799 0.364624 22.1403 1.0841 20.7004 2.52337C19.2616 3.96258 18.542 5.70238 18.542 7.74305C18.542 8.29121 18.6028 8.8549 18.7247 9.43357C15.7092 9.28128 12.8804 8.52366 10.2379 7.16062C7.59551 5.79743 5.35298 3.98131 3.5103 1.7122C2.84018 2.85416 2.50502 4.09555 2.50502 5.43571C2.50502 6.69976 2.80192 7.87256 3.39619 8.95389C3.99005 10.035 4.78978 10.9106 5.79499 11.5808C4.60688 11.535 3.49516 11.2227 2.45972 10.644V10.7354C2.45972 12.5173 3.0194 14.0819 4.13864 15.4301C5.25802 16.7781 6.67065 17.6267 8.37621 17.9771C7.73651 18.1444 7.08912 18.2282 6.43435 18.2282C6.0079 18.2282 5.54335 18.1902 5.04086 18.1146C5.51295 19.5915 6.38108 20.8057 7.64496 21.758C8.90908 22.7098 10.3407 23.2005 11.9398 23.2317C9.25956 25.3328 6.20608 26.3836 2.77946 26.3836C2.12448 26.3836 1.53068 26.3537 0.997559 26.2926C4.42428 28.5005 8.20115 29.6045 12.3284 29.6045C14.9478 29.6045 17.4074 29.19 19.7063 28.3598C22.0064 27.5301 23.9707 26.4182 25.6005 25.0243C27.2299 23.6309 28.6349 22.0281 29.8152 20.2159C30.9954 18.4034 31.8745 16.5114 32.4537 14.5392C33.0322 12.5666 33.3216 10.591 33.3216 8.61086C33.3216 8.18439 33.314 7.86474 33.2987 7.65142C34.746 6.60109 35.9795 5.3292 36.9999 3.83704Z" fill="#ADABAB"/>
</svg>
