<svg width="41" height="23" viewBox="0 0 41 23" fill="none" xmlns="http://www.w3.org/2000/svg">
<path d="M39.9919 20.6121C39.9435 20.5077 39.8984 20.4209 39.8563 20.3515C39.1622 19.1016 37.836 17.5674 35.8783 15.7483L35.8369 15.7067L35.8161 15.6863L35.7951 15.6653H35.7741C34.8856 14.8183 34.323 14.2488 34.0873 13.9572C33.6562 13.4018 33.5596 12.8395 33.7953 12.2699C33.9617 11.8395 34.5871 10.9305 35.6697 9.54178C36.2391 8.80575 36.6902 8.2159 37.0235 7.77148C39.4259 4.57772 40.4674 2.53687 40.1476 1.64814L40.0237 1.44044C39.9404 1.31542 39.725 1.20102 39.3782 1.09671C39.0309 0.992604 38.5866 0.975399 38.045 1.04477L32.0468 1.08621C31.9496 1.05177 31.8106 1.05498 31.6301 1.09671C31.4496 1.13844 31.3592 1.15936 31.3592 1.15936L31.2546 1.21153L31.1718 1.2742C31.1025 1.31563 31.0261 1.3885 30.9427 1.49267C30.8596 1.59648 30.7904 1.71832 30.7348 1.85713C30.0818 3.53724 29.3393 5.09932 28.5061 6.5433C27.9923 7.40433 27.5205 8.15054 27.0896 8.78235C26.6591 9.41395 26.298 9.87929 26.0068 10.1776C25.7148 10.4762 25.4518 10.7154 25.215 10.8961C24.9791 11.0769 24.7988 11.1532 24.6738 11.1253C24.5488 11.0973 24.4311 11.0696 24.3195 11.0419C24.1252 10.9169 23.969 10.7468 23.8513 10.5316C23.7327 10.3164 23.6531 10.0456 23.6115 9.71924C23.57 9.39272 23.5456 9.11187 23.5386 8.87572C23.532 8.63989 23.535 8.30628 23.5492 7.87588C23.5636 7.44525 23.57 7.15388 23.57 7.00113C23.57 6.47342 23.5804 5.90069 23.6009 5.28279C23.6219 4.6649 23.6389 4.17535 23.6531 3.81467C23.6673 3.45363 23.6739 3.07169 23.6739 2.669C23.6739 2.26631 23.6493 1.9505 23.6009 1.72131C23.5532 1.49237 23.4798 1.27019 23.3831 1.05477C23.2855 0.839557 23.1429 0.67308 22.956 0.554911C22.7684 0.436868 22.5355 0.3432 22.2582 0.273608C21.5223 0.107063 20.585 0.0169697 19.4462 0.0029633C16.8637 -0.0247567 15.2043 0.142007 14.4684 0.503039C14.1768 0.655577 13.9129 0.863997 13.677 1.12764C13.427 1.43323 13.3922 1.59998 13.5726 1.62741C14.4059 1.75224 14.9957 2.05083 15.3429 2.52287L15.468 2.77304C15.5653 2.9535 15.6625 3.27302 15.7597 3.73115C15.8568 4.18927 15.9195 4.69606 15.9471 5.2512C16.0164 6.26498 16.0164 7.13281 15.9471 7.85471C15.8775 8.57692 15.8119 9.13915 15.7492 9.54184C15.6866 9.94453 15.5929 10.2708 15.468 10.5207C15.3429 10.7706 15.2597 10.9234 15.2179 10.9788C15.1763 11.0343 15.1415 11.0692 15.114 11.0829C14.9335 11.1521 14.7458 11.1873 14.5515 11.1873C14.357 11.1873 14.1211 11.09 13.8434 10.8955C13.5658 10.701 13.2778 10.4339 12.9792 10.0936C12.6806 9.75333 12.3439 9.27775 11.9688 8.66688C11.5941 8.05598 11.2053 7.334 10.8026 6.50092L10.4694 5.89675C10.2611 5.50806 9.97663 4.94212 9.61559 4.19941C9.25435 3.45641 8.93504 2.73772 8.65746 2.04344C8.5465 1.75186 8.37981 1.52988 8.15769 1.37713L8.05346 1.31446C7.98415 1.25903 7.87289 1.20015 7.72029 1.1374C7.56746 1.07475 7.40798 1.02982 7.24121 1.00215L1.5344 1.04358C0.951236 1.04358 0.55557 1.17571 0.347218 1.43957L0.263838 1.56438C0.222184 1.6339 0.201172 1.74494 0.201172 1.89776C0.201172 2.05053 0.242828 2.23801 0.326209 2.45999C1.1593 4.41797 2.06528 6.30629 3.04411 8.12521C4.02294 9.94417 4.87355 11.4094 5.59538 12.5195C6.31736 13.6305 7.0533 14.679 7.80316 15.6645C8.55299 16.6504 9.04935 17.2823 9.29222 17.5598C9.53535 17.8379 9.72633 18.0458 9.86514 18.1847L10.3859 18.6844C10.7192 19.0178 11.2085 19.4169 11.8542 19.882C12.5 20.3473 13.215 20.8053 13.9995 21.257C14.7842 21.708 15.697 22.0759 16.7385 22.3606C17.7799 22.6453 18.7934 22.7597 19.7794 22.7045H22.1746C22.6602 22.6625 23.0283 22.51 23.2785 22.2463L23.3614 22.1419C23.4172 22.0589 23.4694 21.9304 23.5173 21.7568C23.5661 21.5835 23.5903 21.3924 23.5903 21.1842C23.5761 20.5872 23.6215 20.0492 23.7255 19.5704C23.8294 19.0914 23.9476 18.7304 24.08 18.4873C24.2121 18.2443 24.3615 18.0394 24.5276 17.8731C24.694 17.7066 24.8125 17.6057 24.8823 17.571C24.9515 17.5361 25.0067 17.5124 25.0482 17.4981C25.3815 17.3871 25.7738 17.4946 26.2253 17.8212C26.6767 18.1475 27.1002 18.5504 27.4961 19.0293C27.892 19.5086 28.3674 20.0464 28.9226 20.6432C29.4784 21.2404 29.9643 21.6843 30.3805 21.9762L30.7968 22.2263C31.0751 22.3929 31.4362 22.5458 31.8804 22.6846C32.3243 22.8233 32.7127 22.8581 33.0464 22.7887L38.3781 22.7056C38.9057 22.7056 39.3158 22.6182 39.6069 22.4448C39.8986 22.2713 40.0719 22.0802 40.1277 21.8722C40.1835 21.6641 40.1865 21.4278 40.1383 21.1637C40.0889 20.9002 40.0403 20.716 39.9919 20.6121Z" fill="#ADABAB"/>
</svg>
