<svg width="39" height="27" viewBox="0 0 39 27" fill="none" xmlns="http://www.w3.org/2000/svg">
<path d="M36.5214 2.29578C35.1496 0.665148 32.6169 0 27.78 0H10.2222C5.27465 0 2.69904 0.708045 1.33242 2.44408C0 4.13674 0 6.63073 0 10.0825V16.6615C0 23.3486 1.58091 26.7439 10.2222 26.7439H27.78C31.9745 26.7439 34.2989 26.157 35.8026 24.7178C37.3447 23.2423 38.0026 20.8328 38.0026 16.6615V10.0825C38.0026 6.44232 37.8995 3.93363 36.5214 2.29578ZM24.3979 14.2803L16.4248 18.447C16.2466 18.5402 16.0517 18.5864 15.857 18.5864C15.6366 18.5864 15.4167 18.5271 15.2219 18.4092C14.8551 18.1869 14.6311 17.7894 14.6311 17.3606V9.05374C14.6311 8.62566 14.8545 8.22851 15.2205 8.00613C15.5867 7.78377 16.0421 7.76858 16.422 7.96592L24.3951 12.1058C24.8007 12.3164 25.0553 12.7352 25.056 13.1921C25.0566 13.6493 24.8029 14.0687 24.3979 14.2803Z" fill="#ADABAB"/>
</svg>
