<svg width="130" height="152" viewBox="0 0 130 152" fill="none" xmlns="http://www.w3.org/2000/svg">
<g opacity="0.55">
<path d="M13.4101 0.00102626C15.2199 0.00102626 16.9509 0.364321 18.5336 1.02215C20.1807 1.70667 21.66 2.70521 22.8918 3.94083C24.1235 5.17644 25.1189 6.66041 25.8013 8.31268C26.4571 9.9003 26.8193 11.6367 26.8193 13.4522C26.8193 15.2676 26.4571 17.0041 25.8013 18.5917C25.121 20.2398 24.1245 21.7218 22.8918 22.9594C22.5173 23.3391 22.103 23.7045 21.6539 24.0565C21.3725 24.2771 21.083 24.4865 20.7853 24.6835V26.5267L120.536 64.3689C123.689 65.4116 126.102 67.1911 127.702 69.2857C129.027 71.0221 129.794 72.9772 129.964 74.9178C130.136 76.8893 129.694 78.8463 128.598 80.552C127.56 82.1683 125.941 83.5476 123.71 84.4784C106.509 91.6663 89.3082 98.6705 72.0381 105.6C54.9173 112.471 37.903 119.2 20.7843 125.953V151.999H5.90095V24.5943C5.63087 24.4116 5.36999 24.2197 5.11832 24.0216C4.6958 23.6881 4.29681 23.333 3.92749 22.9625C1.50081 20.5282 0 17.1652 0 13.4512C0 11.6357 0.36216 9.89928 1.01793 8.31166C1.70031 6.65938 2.69574 5.17542 3.92749 3.9398C5.16538 2.70214 6.64266 1.70359 8.28568 1.02113C9.86834 0.363295 11.5993 0 13.4091 0L13.4101 0.00102626ZM116.799 78.7868C116.802 79.5267 116.504 80.2 116.023 80.6864C115.544 81.1708 114.877 81.4735 114.138 81.4776C113.398 81.4797 112.729 81.1821 112.244 80.6997C111.761 80.2195 111.459 79.5503 111.455 78.8083L111.425 74.0085C111.422 73.2686 111.719 72.5964 112.201 72.1089C112.68 71.6245 113.347 71.3218 114.086 71.3177C114.826 71.3156 115.495 71.6133 115.98 72.0956C116.463 72.5759 116.765 73.245 116.769 73.987L116.799 78.7868ZM106.406 82.1498C106.409 82.8898 106.112 83.563 105.631 84.0494C105.152 84.5338 104.485 84.8366 103.745 84.8407C103.006 84.8427 102.337 84.5451 101.852 84.0628C101.369 83.5825 101.067 82.9134 101.063 82.1714L101.033 77.3716C101.03 76.6317 101.327 75.9595 101.809 75.472C102.288 74.9876 102.955 74.6848 103.694 74.6807C104.434 74.6787 105.103 74.9763 105.588 75.4586C106.071 75.9389 106.373 76.6081 106.377 77.35L106.406 82.1498ZM95.3165 86.2077C95.3196 86.9476 95.0219 87.6208 94.5411 88.1073C94.0623 88.5917 93.3952 88.8944 92.6556 88.8985C91.9159 88.9006 91.2468 88.603 90.7619 88.1206C90.279 87.6403 89.9772 86.9712 89.9731 86.2292L89.9435 81.4294C89.9404 80.6895 90.2371 80.0173 90.7189 79.5298C91.1977 79.0454 91.8648 78.7427 92.6044 78.7386C93.3441 78.7365 94.0132 79.0341 94.4981 79.5165C94.981 79.9968 95.2828 80.6659 95.2869 81.4079L95.3165 86.2077ZM84.9244 89.5707C84.9275 90.3106 84.6298 90.9839 84.1489 91.4703C83.6701 91.9547 83.0031 92.2575 82.2634 92.2616C81.5238 92.2636 80.8547 91.966 80.3698 91.4837C79.8869 91.0034 79.5851 90.3342 79.581 89.5923L79.5513 84.7924C79.5483 84.0525 79.8449 83.3803 80.3268 82.8929C80.8056 82.4085 81.4726 82.1057 82.2123 82.1016C82.952 82.0996 83.621 82.3972 84.1059 82.8795C84.5888 83.3598 84.8906 84.0289 84.8947 84.7709L84.9244 89.5707ZM73.8376 94.1283C73.8407 94.8682 73.543 95.5415 73.0621 96.0279C72.5833 96.5123 71.9163 96.8151 71.1766 96.8192C70.437 96.8212 69.7679 96.5236 69.283 96.0413C68.8001 95.561 68.4983 94.8919 68.4942 94.1499L68.4645 89.3501C68.4615 88.6101 68.7582 87.9379 69.24 87.4505C69.7188 86.9661 70.3858 86.6633 71.1255 86.6592C71.8652 86.6572 72.5342 86.9548 73.0192 87.4371C73.502 87.9174 73.8038 88.5865 73.8079 89.3285L73.8376 94.1283ZM63.4455 97.4914C63.4485 98.2313 63.1508 98.9045 62.67 99.391C62.1912 99.8754 61.5242 100.178 60.7845 100.182C60.0448 100.184 59.3758 99.8866 58.8908 99.4043C58.408 98.924 58.1062 98.2549 58.1021 97.5129L58.0724 92.7131C58.0693 91.9732 58.366 91.301 58.8479 90.8135C59.3267 90.3291 59.9937 90.0264 60.7334 90.0223C61.473 90.0202 62.1421 90.3178 62.627 90.8002C63.1099 91.2805 63.4117 91.9496 63.4158 92.6916L63.4455 97.4914ZM52.3556 101.549C52.3587 102.289 52.061 102.962 51.5801 103.449C51.1013 103.933 50.4343 104.236 49.6946 104.24C48.955 104.242 48.2859 103.944 47.801 103.462C47.3181 102.982 47.0163 102.313 47.0122 101.571L46.9825 96.7709C46.9795 96.031 47.2762 95.3588 47.758 94.8713C48.2368 94.3869 48.9038 94.0842 49.6435 94.0801C50.3832 94.078 51.0522 94.3756 51.5372 94.858C52.02 95.3383 52.3218 96.0074 52.3259 96.7494L52.3556 101.549ZM41.9635 104.912C41.9665 105.652 41.6688 106.325 41.188 106.812C40.7092 107.296 40.0422 107.599 39.3025 107.603C38.5628 107.605 37.8938 107.308 37.4088 106.825C36.926 106.345 36.6242 105.676 36.6201 104.934L36.5904 100.134C36.5873 99.394 36.884 98.7218 37.3659 98.2344C37.8447 97.75 38.5117 97.4472 39.2514 97.4431C39.991 97.4411 40.6601 97.7387 41.145 98.221C41.6279 98.7013 41.9297 99.3704 41.9338 100.112L41.9635 104.912ZM30.8736 108.97C30.8767 109.71 30.579 110.383 30.0981 110.87C29.6193 111.354 28.9523 111.657 28.2126 111.661C27.473 111.663 26.8039 111.365 26.319 110.883C25.8361 110.403 25.5343 109.734 25.5302 108.992L25.5005 104.192C25.4975 103.452 25.7942 102.78 26.276 102.292C26.7548 101.808 27.4218 101.505 28.1615 101.501C28.9012 101.499 29.5702 101.797 30.0552 102.279C30.538 102.759 30.8398 103.428 30.8439 104.17L30.8736 108.97ZM83.2272 60.3768C83.9187 60.6344 84.4405 61.1506 84.7249 61.7735C85.0083 62.3975 85.0553 63.1302 84.7986 63.8229C84.5418 64.5167 84.0272 65.0401 83.4062 65.3254C82.7842 65.6097 82.0537 65.6569 81.3632 65.3993L76.8812 63.7183C76.1896 63.4607 75.6678 62.9445 75.3834 62.3215C75.1001 61.6976 75.053 60.9648 75.3098 60.2721C75.5666 59.5783 76.0811 59.055 76.7021 58.7697C77.3231 58.4854 78.0546 58.4382 78.7452 58.6958L83.2272 60.3768ZM67.6072 54.678C68.2988 54.9356 68.8206 55.4518 69.105 56.0747C69.3884 56.6987 69.4354 57.4314 69.1786 58.1241C68.9219 58.8179 68.4073 59.3413 67.7863 59.6266C67.1643 59.9108 66.4338 59.9581 65.7432 59.7005L33.378 47.5588C32.6864 47.3012 32.1647 46.785 31.8803 46.1621C31.5969 45.5381 31.5498 44.8054 31.8066 44.1126C32.0634 43.4189 32.578 42.8955 33.199 42.6102C33.82 42.3259 34.5515 42.2787 35.242 42.5363L67.6072 54.678ZM117.897 69.1092L21.1608 32.4092V120.036C28.5748 117.111 36.1965 114.098 44.4392 110.83C52.9224 107.466 61.0382 104.234 68.574 101.213C77.2352 97.7397 86.0262 94.1878 95.0229 90.5159C103.893 86.8953 112.768 83.2356 121.657 79.5206C122.242 79.2763 122.735 78.991 123.139 78.677C123.542 78.364 123.86 78.0181 124.094 77.6548C124.303 77.3295 124.451 76.9724 124.54 76.5968C124.631 76.2088 124.659 75.7994 124.622 75.3827C124.581 74.9086 124.462 74.4283 124.27 73.9593C124.073 73.481 123.799 73.0049 123.449 72.5461C122.952 71.8955 122.309 71.2879 121.524 70.7604C120.772 70.2545 119.882 69.8173 118.86 69.4786L117.882 69.1544L117.897 69.1092ZM15.4204 28.4479H11.2658V146.621H15.4204V28.4479ZM19.1003 7.74516C18.3576 7.00113 17.4706 6.40077 16.4895 5.99232C15.5452 5.60029 14.5048 5.38375 13.4091 5.38375C12.3134 5.38375 11.273 5.60029 10.3287 5.99232C9.34761 6.39974 8.46062 7.0001 7.71789 7.74516C6.97515 8.49433 6.37565 9.38307 5.97052 10.3642C5.57971 11.3114 5.36385 12.3551 5.36385 13.4542C5.36385 14.5534 5.57971 15.5981 5.97052 16.5443C6.37462 17.5244 6.97413 18.4131 7.71891 19.1612C9.17369 20.6206 11.186 21.5247 13.4081 21.5247C14.5038 21.5247 15.5452 21.3082 16.4885 20.9161C17.4665 20.5098 18.3515 19.9094 19.0973 19.1623C19.841 18.4193 20.4395 17.5295 20.8457 16.5453C21.2365 15.5981 21.4523 14.5544 21.4523 13.4553C21.4523 12.3561 21.2365 11.3124 20.8457 10.3652C20.4395 9.38102 19.841 8.49125 19.0983 7.74619L19.1003 7.74516Z" fill="#6059F7"/>
</g>
</svg>
