<svg width="70" height="76" viewBox="0 0 70 76" fill="none" xmlns="http://www.w3.org/2000/svg">
<path d="M20.1754 0.582356H49.7305C60.8711 0.582356 69.9059 9.61717 69.9059 20.7578V55.1934C69.9059 66.334 60.8711 75.3688 49.7305 75.3688H20.1754C9.03481 75.3688 0 66.3327 0 55.1921V20.7565C0 9.61587 9.03612 0.581055 20.1767 0.581055L20.1754 0.582356Z" fill="#6059F7"/>
<path d="M25.5064 0.581055H49.7307C60.8739 0.581055 69.9061 9.61457 69.9061 20.7565V48.1303H25.5051V0.581055H25.5064Z" fill="#6592FE"/>
<path d="M48.294 43.0679C46.8078 44.5138 45.5063 45.5511 44.4065 46.1836C43.3068 46.8148 42.168 47.3042 40.9863 47.6087C39.785 47.9146 38.5226 48.0773 37.1795 48.0773C33.7397 48.0773 30.991 46.997 28.936 44.86C26.8601 42.7217 25.8215 40.1162 25.8215 37.0004C25.8215 33.2132 27.369 30.0571 30.4834 27.5127C33.577 24.967 38.5838 23.7046 45.5258 23.7046H48.294V20.2023C48.294 17.8402 47.642 16.2524 46.3392 15.4168C45.0156 14.6021 43.368 14.1961 41.352 14.1961C37.3825 14.1961 33.3323 15.3361 29.2002 17.6371V10.4699C33.9024 8.69864 38.5642 7.82275 43.2248 7.82275C46.075 7.82275 48.6194 8.20929 50.8788 8.96284C53.1173 9.73592 54.9094 10.9372 56.2525 12.5666C57.5957 14.1961 58.2672 16.6181 58.2672 19.8353V36.8976C58.2672 38.9748 58.5926 40.2372 59.2238 40.7057C59.855 41.1743 60.5058 41.4189 61.137 41.4189C61.5027 41.4189 61.9712 41.3786 62.5413 41.2771L62.7859 47.0999C60.5877 47.7519 58.6329 48.0773 56.9241 48.0773C55.0109 48.0773 53.362 47.7506 51.9772 47.0999C50.5729 46.4686 49.5135 45.1255 48.7613 43.0679H48.2927H48.294ZM48.294 37.4885V29.6692H45.8512C42.4517 29.6692 39.9282 30.2601 38.2792 31.4614C36.6094 32.6626 35.7752 34.1697 35.7752 35.9814C35.7752 37.4468 36.2841 38.6481 37.3018 39.606C38.3 40.5626 39.4805 41.0311 40.8236 41.0311C42.0444 41.0311 43.2873 40.7253 44.5289 40.1357C45.7705 39.5448 47.0329 38.6494 48.294 37.4898V37.4885Z" fill="white"/>
<path d="M8.18762 62.0861V10.186H18.9755V54.7159H42.3643V62.0861H8.18762Z" fill="white"/>
</svg>
